/* XPM */
static char *_452292ccfd241c7e991866802ab8052cpReVSthHIeJUm8g[] = {
/* columns rows colors chars-per-pixel */
"28 32 196 2 ",
"   c #1E0200",
".  c #190A04",
"X  c #230300",
"o  c #270F0D",
"O  c #340A0C",
"+  c #321609",
"@  c #291616",
"#  c #341D1C",
"$  c #3A1D1B",
"%  c #321F25",
"&  c #2B2026",
"*  c #312028",
"=  c #392A28",
"-  c #3E3332",
";  c #383139",
":  c #41291D",
">  c #422523",
",  c #422A2A",
"<  c #582222",
"1  c #4B352B",
"2  c #433125",
"3  c #513E2F",
"4  c #482F32",
"5  c #592F39",
"6  c #4D3434",
"7  c #463938",
"8  c #583937",
"9  c #583E3A",
"0  c #66332D",
"q  c #733E3A",
"w  c #673337",
"e  c #4A423F",
"r  c #564136",
"t  c #6C4F3F",
"y  c #624C3E",
"u  c #77453E",
"i  c #433E45",
"p  c #7D3F40",
"a  c #673B4A",
"s  c #4F4045",
"d  c #49464D",
"f  c #534446",
"g  c #5F4643",
"h  c #5B4946",
"j  c #5A4847",
"k  c #5B4E57",
"l  c #5F5355",
"z  c #6E4D44",
"x  c #6D4E4B",
"c  c #66464D",
"v  c #774949",
"b  c #764B44",
"n  c #76554B",
"m  c #6A5759",
"M  c #755A53",
"N  c #73515A",
"B  c #795757",
"V  c #725250",
"C  c #795F63",
"Z  c #7C716D",
"A  c #796F70",
"S  c #7D7174",
"D  c #80413C",
"F  c #934048",
"G  c #9E4D4C",
"H  c #815C55",
"J  c #875F5F",
"K  c #8D5C57",
"L  c #915C5B",
"P  c #995857",
"I  c #A35C5A",
"U  c #A8595A",
"Y  c #B45C5B",
"T  c #856058",
"R  c #8A635A",
"E  c #826361",
"W  c #8C6B65",
"Q  c #846C6B",
"!  c #966367",
"~  c #9B766B",
"^  c #997B6A",
"/  c #826F71",
"(  c #996B7B",
")  c #8D7B7A",
"_  c #8A7574",
"`  c #967D76",
"'  c #9F7C71",
"]  c #98797A",
"[  c #A66569",
"{  c #B66C6B",
"}  c #A17D74",
"|  c #A67F78",
" . c #BE7471",
".. c #D96569",
"X. c #C3726F",
"o. c #CD6E72",
"O. c #CE7274",
"+. c #CB7C7F",
"@. c #DF7577",
"#. c #D77578",
"$. c #E3696E",
"%. c #E36B71",
"&. c #F46E75",
"*. c #E3747A",
"=. c #E3787A",
"-. c #EA7379",
";. c #F5767D",
":. c #988578",
">. c #A58879",
",. c #BD827C",
"<. c #B1917A",
"1. c #DC7F87",
"2. c #E77E83",
"3. c #978A87",
"4. c #9B938A",
"5. c #9E9791",
"6. c #AD8C86",
"7. c #A98B8B",
"8. c #AD9289",
"9. c #B19389",
"0. c #BC9B88",
"q. c #A48D93",
"w. c #A99B97",
"e. c #B79896",
"r. c #B99B9A",
"t. c #B29F9B",
"y. c #B38588",
"u. c #A7A29F",
"i. c #BCA398",
"p. c #B9AFAD",
"a. c #BFACB2",
"s. c #C48484",
"d. c #DC8382",
"f. c #C09899",
"g. c #D39796",
"h. c #C9AA9B",
"j. c #CC9FA4",
"k. c #CCBCBD",
"l. c #DEBCB4",
"z. c #D5B5BA",
"x. c #D6ABB5",
"c. c #E4AFA9",
"v. c #FBA5A4",
"b. c #E0BFB0",
"n. c #FFBAB7",
"m. c #F7BAB9",
"M. c #FFBFBD",
"N. c #C5C0BC",
"B. c #D8C8BB",
"V. c #EDCDBD",
"C. c #E9C9BA",
"Z. c #C7BEC1",
"A. c #CDBEC1",
"S. c #DDB2C6",
"D. c #DEC9C4",
"F. c #DBD2C9",
"G. c #DCD5DD",
"H. c #E5D8CF",
"J. c #F4D4C2",
"K. c #F8D9CB",
"L. c #E4D5D3",
"P. c #E1DED7",
"I. c #FDDFDD",
"U. c #ECEADE",
"Y. c #FEE7DD",
"T. c #FBE5D8",
"R. c #DCD4E1",
"E. c #F4D3E6",
"W. c #DBECE2",
"Q. c #EBE4E3",
"!. c #EEEAE5",
"~. c #ECEDE9",
"^. c #E0ECE0",
"/. c #F3EDEB",
"(. c #F4EAE8",
"). c #E3F2EB",
"_. c #ECF4EC",
"`. c #F4F0EC",
"'. c #FDF3EC",
"]. c #F2FAEE",
"[. c #FCFAEE",
"{. c #F7F1E7",
"}. c #EAEAF2",
"|. c #F5E8F4",
" X c #EEF3F4",
".X c #E9F2F9",
"XX c #EEFBFB",
"oX c #ECF9F2",
"OX c #F4F4F4",
"+X c #FDF5F3",
"@X c #F5FDF3",
"#X c #FDFCF5",
"$X c #F3F7FC",
"%X c #FDF5FA",
"&X c #F5FEFD",
"*X c #FDFEFE",
/* pixels */
"@X#X#X#X#X*X%X%X%X%X%X*X%X%X%X%X$XXX*X*X%X%X%X#X#X#X*X*X",
"#X#X#X#X*X*X%X%X*X*X*X*X*X*X*XOX&X&X$XOX*X*X#X#X#X*X*X*X",
"#X#X*X*X*X*X*X*X*X*X&X&X&XoX_.*X*X*X*X*X*X*X#X#X*X*X*X*X",
"*X*X*X*X*X*X*X*X X&X&X).&X&X^._.OXOX#X#X&X&X*X$X*X*X*X*X",
"*X*X*X*X*X*X*X*X*X_.#X#X[.[.#X#X#X'.{.#X#X).&X&X*X*X*X*X",
"*X*X*X*X*X*X*X*X(.#XD.M W ~ R R } [.#XU.#X&X&XXX*X*X*X%X",
"*X*X*X*X*X*X#X+XI.B L [ U G Y U P u 6.#X].W.&X&X*X*X%X%X",
"*X*X*X*X*X#X#X+Xv p +.O.2.*.-.=.d.I 0 8.#X&XXX&X*X*X%X%X",
"*X&X*X*X#X#X'.(.q { O.@.%.;.&.$.@.d.D | #X#X$X*X*X*X%X%X",
"*X*X*X#X@X#X#XC.0  .d.=.....%.$.*.o.I L '.#X*X*X*X*X%X%X",
"*X#X#X@X#X[.[.r b ,. .X.v.M.n.#.O.1.[ < e.#X+X*X*X*X*X*X",
"*X#X#X@X].[.#X2 n K K s.m.g.c.m.U F P w ] #X#X*X*X*X*X*X",
"*X*X#X#X#X#X{.= M J ! y.f.E ` r.! [ [ O ] #X#X#X*X*X*X*X",
"*X%X#X#X#X#X4.. 6 ] x.z.z.a.Z.A.z.j.B X g L./.#X#X*X&X&X",
"%X*X*X#XOX`.l N a a ( S.E.|.R.G.k.c , _ = w.#X@X#X&X&X&X",
"*X*X*X*X*X*X- ) N 5 N ( N m k S m h r ) j 5.#X].&X&X&X&X",
"*X*X*X&X&X*X!.7 1 9.' R n i.i.1 >.^ :.. 4.#X~.#X*X*X*X*X",
"*X&X&X*X*X~.#XH.3 >.C.<.^ T.J.t V.h.x :.[.[.#X*X*X*X*X*X",
"*X*X*X*X&X*X+X#XY.+ 0.J.K.b.K.K.V.t y [.#X#X~.*X*X*X*X*X",
"*X*X*X*X*X#X+X#X` + ^ ~ h.l.l.9.} n : B.{.#X#X*X*X*X*X*X",
"*X*X*X%X*X+X#Xt.  z ' H T B x E n >.+ r F.!.#XOX*X*X*X*X",
"%X*X*X%X*X*Xw.3.` x H W 6.8 Q 7.W z M w.4.P.OX*X*X*X*X*X",
"*X#X*X*XOX+XA L.k.  $ 9 r.C q.C 9 X g Y.Z N.#X#X*X*X*X*X",
"#X#X*X X%X*XQ.S m @ 6 o # # * % $ > $ Q p.+X*X*X*X*X*X*X",
"#X*X*X*X*X*X%X#Xk.@ j 7 f & ; 7 j > 6 #X/.#X*X*X*X*X*X*X",
"#X#X*X*X*X*X*X#XQ.7 - f = d d i f 4 ) `.#X*X*X*X*X*X*X*X",
"#X*X*X*X&X&X*X#X`.!.e u.*X$X*X}.s / +X*X#X~.OX*X*X*X*X*X",
"#X*X*X*X*X&X*X*X#XQ.#X#XOX*X.X*X*X%X*X/.~.*X*X*X*X*X*X*X",
"#X*X*X*X*X*X*X*X#X#X+X~.*X*X.X$XOX%XOX*X$X*X$X*X*X*X*X*X",
"#X*X*X*X*X*X*X*X#X#X+X*X*X*X*X*X*X*X&X*X*X$X&X*X*X*X*X*X",
"#X#X*X*X*X*X*X#X#X#X#X#XOX*X*X&X&X%X$X&X*XXX&X*X*X*X*X*X",
"#X#X*X*X*X*X*X#X#X#X+X+X*X*X&X*X*X*X*X*X&X&X&X&X*X*X*X*X"
};
