/* XPM */
static char *_bdcf39fa517416fc3d73f132e90f958gx8vfg6ZSbJ5K4kP[] = {
/* columns rows colors chars-per-pixel */
"34 32 215 2 ",
"   c #0D0000",
".  c #1B0200",
"X  c #150000",
"o  c #1E0E14",
"O  c #1D1313",
"+  c #19150C",
"@  c #290900",
"#  c #330D00",
"$  c #2F170D",
"%  c #3B1D00",
"&  c #291A12",
"*  c #35221B",
"=  c #391F21",
"-  c #372926",
";  c #3C312F",
":  c #3F3639",
">  c #401F00",
",  c #481917",
"<  c #521719",
"1  c #533002",
"2  c #5A3506",
"3  c #462A1C",
"4  c #562C1D",
"5  c #59211C",
"6  c #4D3217",
"7  c #5E3C16",
"8  c #653F01",
"9  c #421F23",
"0  c #412A23",
"q  c #462C2C",
"w  c #492827",
"e  c #5B2C2A",
"r  c #572A25",
"t  c #4B3428",
"y  c #5A3A26",
"u  c #5C342D",
"i  c #583828",
"p  c #5C2E30",
"a  c #483835",
"s  c #5D3333",
"d  c #543436",
"f  c #492F3A",
"g  c #672C2B",
"h  c #6F342E",
"j  c #683935",
"k  c #783A3A",
"l  c #6A4418",
"z  c #744E1F",
"x  c #7A5014",
"c  c #4E433C",
"v  c #5B4437",
"b  c #62472E",
"n  c #694628",
"m  c #744F22",
"M  c #68453A",
"N  c #775439",
"B  c #784A33",
"V  c #4F3C40",
"C  c #513543",
"Z  c #693D42",
"A  c #4F4345",
"S  c #544947",
"D  c #5A5152",
"F  c #59524C",
"G  c #6C4C43",
"H  c #654442",
"J  c #754747",
"K  c #6B5A48",
"L  c #775945",
"P  c #795447",
"I  c #614752",
"U  c #775454",
"Y  c #7C6749",
"T  c #786254",
"R  c #77645A",
"E  c #776754",
"W  c #685D61",
"Q  c #796764",
"!  c #71726D",
"~  c #766B73",
"^  c #97731F",
"/  c #845828",
"(  c #80403E",
")  c #855936",
"_  c #916E2C",
"`  c #9E7A22",
"'  c #896839",
"]  c #8A703F",
"[  c #997637",
"{  c #8A6B28",
"}  c #A47D22",
"|  c #834441",
" . c #874B49",
".. c #964B49",
"X. c #86554A",
"o. c #8C4F54",
"O. c #865553",
"+. c #8A5859",
"@. c #985755",
"#. c #A3534F",
"$. c #AD564E",
"%. c #A55B5C",
"&. c #A85956",
"*. c #B25954",
"=. c #A84C4D",
"-. c #95774B",
";. c #856050",
":. c #9F645E",
">. c #906F51",
",. c #AF6155",
"<. c #BE675E",
"1. c #877877",
"2. c #9F787D",
"3. c #856B69",
"4. c #A86565",
"5. c #BB6962",
"6. c #B66864",
"7. c #BA766B",
"8. c #B37872",
"9. c #D35E4C",
"0. c #CB615E",
"q. c #C9655A",
"w. c #DA6A58",
"e. c #E66A53",
"r. c #E76E59",
"t. c #EC715A",
"y. c #E4715E",
"u. c #F0725B",
"i. c #C66A64",
"p. c #DB6F65",
"a. c #D16D66",
"s. c #CA7362",
"d. c #D77667",
"f. c #C77B75",
"g. c #D77C74",
"h. c #E47362",
"j. c #EA7562",
"k. c #E87769",
"l. c #E67E77",
"z. c #ED7263",
"x. c #AF883D",
"c. c #BB9535",
"v. c #C6A03F",
"b. c #B18E4C",
"n. c #B8934E",
"m. c #98827E",
"M. c #AA8A75",
"N. c #C38078",
"B. c #DD8173",
"V. c #E48676",
"C. c #C3A57F",
"Z. c #877981",
"A. c #8E8284",
"S. c #95878C",
"D. c #948C8A",
"F. c #918A80",
"G. c #998893",
"H. c #9B9999",
"J. c #AB9799",
"K. c #B49A99",
"L. c #AB9AA2",
"P. c #BDAAA5",
"I. c #B8A3A2",
"U. c #B9AEB2",
"Y. c #BDB1B2",
"T. c #AEA9A6",
"R. c #CE8781",
"E. c #C9B8B9",
"W. c #CCC6CB",
"Q. c #D2C6C9",
"!. c #DCC5C7",
"~. c #D8CDD5",
"^. c #DDD6DD",
"/. c #D4D5CD",
"(. c #EAD6D7",
"). c #F1D7D3",
"_. c #F8DCDD",
"`. c #EDCDCA",
"'. c #EFE0DB",
"]. c #E5DAE0",
"[. c #EBE8E8",
"{. c #F5ECEE",
"}. c #FAE8EB",
"|. c #ECF4EB",
" X c #F4F3EE",
".X c #FCF3ED",
"XX c #F2FBEE",
"oX c #EDEFF5",
"OX c #EDE5F0",
"+X c #FCEFF4",
"@X c #F9EBF6",
"#X c #EDF7F5",
"$X c #F5F4F4",
"%X c #FBF5F4",
"&X c #F5FCF4",
"*X c #FDFDF5",
"=X c #F5F5FA",
"-X c #FDF6FC",
";X c #F5FDFC",
":X c #FFF9FF",
">X c #FFFBFF",
",X c #FFFAFF",
"<X c #FEFAFE",
"1X c #F9FFFF",
"2X c #FBFEFF",
"3X c #FAFEFE",
"4X c #FFFFFD",
"5X c #FFFDFF",
"6X c #FCFFFF",
"7X c #FFFEFF",
"8X c #FEFFFF",
"9X c white",
"0X c #FEFEFE",
"qX c #FEFDFE",
"wX c #FDFDFD",
/* pixels */
";X;X4X*X*X*X*X*X&XXX*X4XqXqX1X1X1X;X=X*X*X*X*X&X4XqX:XqX:XqXqXqXqXqX",
";X;X4XwXwX*X*X*X*X&X4X&XqXqXqX<X<XqX1X&XXX&X*X4XqXqXqXqXqXqXqXqXqXqX",
";X1XqX:XwXwX4XwX;X;X=XqXqX[.qX;XqX<XwX4XwX*X&X&XqXqXqXqXqXqXqXqXqXqX",
"1X1XqX:X:X:XqX1X;X|.qX%XwX4X.X4X-X:XwX$X&X4XwX1X1XqXqXqXqXqX4X4XqXqX",
"1XqX:X:X:X:XqX1X1X1XqX%X*X).).`._.(.(.(..X4X$XqX1X1XqXqXqX4X*X4XqXqX",
"1XqX:X:X:X:X1X1X1X$X}._.`.e e u r p e w m.}.%X%X:X1X1XqXqX4X*X*X4XqX",
"1XqXqX:X:XqX1X1X;X%X_.e g N.7.7.R.7.f.8.O.u 3.:X:X:XqX1XqX4X*X*X4XqX",
"wX1XqXqXqXqX1X1XqXE.s @.f.g.s.B.d.a.g.f.f.:.j 3.-X:X:XqXqX4X*X*XqXqX",
"&XwX&XqX=XqX1X1XqX!.< f.l.p.k.j.h.j.w.k.g.f.@.J -X:X:X<XqX4X4X4XqXqX",
"&XwX*X4XqX1X1XqXE.M 4.g.p.k.9.r.e.t.e.w.p.B.6. .2.}.:X:XqX;X4X4XqXqX",
"&X*X*X4X4X1X|.4XP., f.a.k.z.j.t.t.u.u.t.h.l.i.( Z :X:XqXqX<XqXqXqXqX",
";X&X4X4X4XwX|.4XP.g %.i.l.p.k.w.j.w.j.y.h.q.5.| J -X-X=XqXqXqXqXqXqX",
"wXwX4XqXwXwXwX*XP.s %.=.0.0.a.V.V.d.d.q.q.$.&.| U }.qX<X1X1XqXqXqXqX",
"qXwXqXqX;X;XwX/.3.w o...$.$.<.,.&.,.5.*.$.#...h H K.qX1X1X1X1X;XqXqX",
"qX<X:XqX;X=XwXH.* H g %.&.#...5 < e k  .@.@. .j v ; 4X;X#X1X1XqXqXqX",
"qXqX:XqXqX;XqX! ; K.p o.k 4.h J J Z j O.+.X.j G J.O ;X1X1X1X;XqXqXqX",
":X:X:XqX*XqX XT.A 1.= s e  .X.+.+.+.O.P j 3 t K Q D $XqXqXqX:XqXqXqX",
":X:XqXqXqX4X4X{.U.o q U u r 4 r 5 e e u y v v & F %XqXqXOXqX:XqXqXqX",
"qXqXqXqX$X$X%XqX+XY.= t G ;.N B X.X.X.M L v & c 4X[.qXqXqXqXqXqXqXqX",
"qXqXqX=X4XqXqXqXqX{.P.. t N n ) ) / n ;.L . S *X X&X&XqX=X1XqXqXqXqX",
"qXqXqX&X1X1XwXqX$XqX'.0 . . 7 z / x l % . $ m.{. X4X*XwXwX1XqX<XqXqX",
"qX=X1X1X;X;X$XqX:XQ.& t 6 -.1 1 1 2 8 ' L * a W *X%X&X4X4XwXqXqXqXqX",
"wX=X*XqXqX1XqXqXW.O - t b C.@ _ } c.# m M.q f o S 4X*X*X|.4XqXqXqXqX",
"4X4X4X4X$X=X<XW.Z.A.Q 3 b 6 ' n.v.c.x.l y d f G.S.D.*X*X*X*X1XqXqXqX",
"4X4X*X4X;XqX<XH.~ +XI.. b > ' b.c.c.n.2 4 9 C @XQ.S .X*X*X XqXqXqXqX",
"4X4X*XqX$X%XqX~.S.S.Q 0 y 6 -.[ ^ ` [ 7 M d C J.Z.Y.*X*X*X*XqX:XqXqX",
":XqX&XqXwX$XqX:X~.L.1.0 M y N -.{ [ ' N G q I G.L.:X%X*X*X*XwXqXqXqX",
":XqX$X4XqXwXqX:X:X{.!.  R T X Y -.] % 6 T & V :X%XwX4X%X4X4XwXqXqXqX",
"<XqX;X;X4X4X4X%XqX{.].A c a R K K Y E T a a D.:X-X{.qX-XqXqXqXwXqXqX",
";X1X1X;X*XwX4XqX;XqX=X^.: - 4X*X*X*X*XF.+ 1. X%X$XqX<XqXqXqXqXqXqXqX",
"1X1X1X1X&X&XwXwX1X=X<XqXqXqX[.:X@XqX:X&X*X*X&X&XqXqXoXqXqXqX4XqXqXqX",
"1X=X1X1XwXwX&X&X1X=X1X1X=X=XqX=XqX<XoXqXXXXXXX&X1XoXqXqX<XqXqX&XqXqX"
};
