/* XPM */
static char *_448a7c7ec78462fe831cfe2aed89a05VXnC2mBboZqRbqPA[] = {
/* columns rows colors chars-per-pixel */
"32 32 192 2 ",
"   c #090000",
".  c #190300",
"X  c #2D0F00",
"o  c #26170D",
"O  c #301D00",
"+  c #331C0A",
"@  c #291A13",
"#  c #292017",
"$  c #372612",
"%  c #382A05",
"&  c #361B20",
"*  c #2B2120",
"=  c #392B25",
"-  c #3D322C",
";  c #3C3431",
":  c #432B00",
">  c #502F04",
",  c #59360E",
"<  c #5C2517",
"1  c #52281C",
"2  c #43381C",
"3  c #5F3819",
"4  c #573618",
"5  c #62281A",
"6  c #472A23",
"7  c #442B2E",
"8  c #5C2B2C",
"9  c #4C3B29",
"0  c #5E3728",
"q  c #593926",
"w  c #443A34",
"e  c #4B3D34",
"r  c #5C3532",
"t  c #533336",
"y  c #7E3129",
"u  c #603830",
"i  c #6C353A",
"p  c #703F38",
"a  c #733A31",
"s  c #633528",
"d  c #4B413F",
"f  c #52453F",
"g  c #684324",
"h  c #694839",
"j  c #794E3B",
"k  c #685930",
"l  c #7C5F33",
"z  c #775927",
"x  c #70603C",
"c  c #663C43",
"v  c #574D48",
"b  c #6F4640",
"n  c #6A4D4C",
"m  c #655148",
"M  c #755949",
"N  c #7B5755",
"B  c #7C4A49",
"V  c #6C615D",
"C  c #7D6659",
"Z  c #7E715E",
"A  c #715C6D",
"S  c #7C6C68",
"D  c #7C6D71",
"F  c #736B79",
"G  c #7E7576",
"H  c #883937",
"J  c #864038",
"K  c #9D463F",
"L  c #AE4639",
"P  c #854343",
"I  c #814C4D",
"U  c #894F4D",
"Y  c #835440",
"T  c #915D4F",
"R  c #824E5B",
"E  c #994F50",
"W  c #885457",
"Q  c #B64B46",
"!  c #AC4D51",
"~  c #A65655",
"^  c #B65955",
"/  c #B45446",
"(  c #86694C",
")  c #9D625A",
"_  c #A7655D",
"`  c #B76159",
"'  c #A15E65",
"]  c #926061",
"[  c #86726B",
"{  c #9E7967",
"}  c #847877",
"|  c #8F6E70",
" . c #A76965",
".. c #B96B66",
"X. c #AE7063",
"o. c #B8716B",
"O. c #D25C50",
"+. c #CE6552",
"@. c #DC6957",
"#. c #D3685B",
"$. c #D6715F",
"%. c #E26D54",
"&. c #E96E5C",
"*. c #EC745B",
"=. c #CD6D62",
"-. c #DB6F62",
";. c #D27666",
":. c #DE7663",
">. c #D6786C",
",. c #C57C74",
"<. c #D77E74",
"1. c #CB786A",
"2. c #E77562",
"3. c #EA7B68",
"4. c #F27563",
"5. c #A68F5B",
"6. c #968965",
"7. c #908871",
"8. c #9C887F",
"9. c #B68A6D",
"0. c #AA8675",
"q. c #BA8D78",
"w. c #B29E74",
"e. c #BA9279",
"r. c #B8A374",
"t. c #CF8677",
"y. c #D38479",
"u. c #D28170",
"i. c #A27B8E",
"p. c #858087",
"a. c #968885",
"s. c #B28284",
"d. c #A7948D",
"f. c #B79789",
"g. c #B28E97",
"h. c #A6A092",
"j. c #BDA49D",
"k. c #A697A4",
"l. c #B5A8A7",
"z. c #CA8283",
"x. c #DC9B98",
"c. c #C9A698",
"v. c #D8AE96",
"b. c #C1B794",
"n. c #C4AAA2",
"m. c #CDB6AE",
"M. c #D0A4B1",
"N. c #CDB7B4",
"B. c #C7B5B1",
"V. c #D4BCB0",
"C. c #DCB7A7",
"Z. c #FEB9B4",
"A. c #DFC9BC",
"S. c #E1C4B8",
"D. c #BDBBC9",
"F. c #D3BCC9",
"G. c #C2B7C7",
"H. c #D1C0C8",
"J. c #E8CDC5",
"K. c #E8D1CB",
"L. c #E5DBD8",
"P. c #F4DCDC",
"I. c #FFE0D5",
"U. c #FFF7D7",
"Y. c #FFF6DD",
"T. c #E7DCE4",
"R. c #FBDFEE",
"E. c #ECECED",
"W. c #EDE8E5",
"Q. c #F3ECEB",
"!. c #FFEAEE",
"~. c #ECF2EE",
"^. c #EBF6E6",
"/. c #FFFFE7",
"(. c #F4F2ED",
"). c #FEF5ED",
"_. c #F5FCEC",
"`. c #FEFBEA",
"'. c #FFF2E5",
"]. c #EDECF4",
"[. c #F1EFF2",
"{. c #FFECF3",
"}. c #EEF4F3",
"|. c #EEF8F9",
" X c #F4F4F3",
".X c #FDF5F4",
"XX c #F5FBF3",
"oX c #FCFDF5",
"OX c #F3F6FB",
"+X c #FDF5FB",
"@X c #F5FDFD",
"#X c #FEFEFE",
/* pixels */
"@X@X@X#X#X#X#X#X#X(.#X#XXXXXoX_._.oXXXXX#XXX#X#X#X#X#X#X#X#X@X@X",
"@X@X@X#X#X#X#X#X(.#X#X#XoXoX^.oX#XoX X#X@X@X#X#X#X#X#X#X#X#X@X@X",
"#X#X#X#X#X#X#X#X#XOXOX@X@XXX#X#XE.#X#XXX@X@X@X#X#X#X#X#X#X#X#X@X",
"#X#X#X#X#X#X#X@X@XOXOX#X].}.#X(.#X+X#X#X@X|.@X@X#X#X#X#X#X#X#X#X",
"#X#X#X#X#X#X@X@X@X@X#X].#X#X#X.X+X+X+X+X@X@X@X@X@X#X#X#X#X#X#X#X",
"#X#X#X#X#X#X@X@X@XOX#X+X+X!.!..X+X{.#X#X[.@X@X@X@X@X#X#X#X#X#X#X",
"#X#X#X#X#X#X@X@X@X#X#X{.N W 8 I W 8 g.+X.X#X@X}.@X@X#X#X#X#X#X#X",
"#X#X#X#X#X@X@X@X#X.X{.N I  .o..._ z.U 8 n.oX(.@X@X@X#X#X#X#X#X#X",
"#X+X#X~.@X@X@XXX X+X| B ,.y.;.>.>.<.,.X.8 V.oXoX#X@X@X#X#X#X#X#X",
"#X+X#X@X@X@X~.#X#XP.N _ y.;.:.2.2.-.;.t.T 0.'.oX#X@X@X#X#X#X#X#X",
"#X#X#X#X@X@X X#XL.n s.x.<.$.3.%.&.@.#.u._ 0 A.).#X#X#X#X#X#X#X#X",
"#X#X#X@X@X@X#XT.D | ] Z.>.:.%.*.4.3.3.1.X.1 S.).#X#X#X#X#X#X#X#X",
"#X#X#X@X@XOX#Xp.k.+Xs.x...=.+.@.O.#.=.` ) u J.+X+X#X#X#X#X#X#X#X",
"#X#X#X#X@XOX#XF k.R.M.W E K / L Q Q ^ ~ W r N.#X#X#X#X#X#X#X#X#X",
"#XoX#X#X@X@X#XD.F F.i.R ' ~ ^ ` ^ ! ~  .W t F.#X#X#X#X#X#X#X#X#X",
"#XoX#X#X#X@XOX#XG.A g.c i P J y H H P I c & H.#X#X#X#X#X#X#X#X#X",
"#X#X#X#X#X#X#X#X#XD 7 6 b s < 5 < a p r n a.T.#X#X#X#X#X#X#X#XoX",
"#X#X#X#X#X#X#X#X#XD S . c.{ 3 q.Y j h M . l.#X#X@X@X@X#X#X#X#X#X",
"#X#X#X#X#X#X#X#X.Xl.B.j.I.C.0.v.9.3 ( q C L.#X#X#X@X@X#X#X#X#X#X",
"#X#X#X#X#X#X#X#X#XW.a.K.J.S.c.e.g , X ( Y.`.).#X#X@X@X#X#X#X#X#X",
"#X#X#X#X#X@X#X#X.XQ.K.[ C N f.g > z : w.U./.`.#X#X@X#X#X#X#X#X#X",
"#X#X#X#X#X#X#X#X#X#XoXB.M f.c.M l 5.r.k b././.oX#X@X#X#X#X#X#X#X",
"#X#X#X#X#X#X#X#XOX+X.X} m 6 h q 4 w.6.% 6./.oXoX#X#X#X#X#X#X#X#X",
"#X#X#X#X#X#X#X#X+X#X#Xv o m.n.+ O x 6.2 7.`.(.oX#X#X#X#X#X#X#X#X",
"#X#X#X#X#X#X#X#X#X#X.XV o d.8.9 $ 9 Z o h.oXW.#X#X#X#X#X#X#X#X#X",
"#X#X#X#X#X#X#X#XOXOX#X.X- @ = S e   # a..X(.#X X#X#X#X#X#X#X#X#X",
"#X#X#X#X#X#X#X#X#X+X X(.d = f w * G #X#X+X#X X#X#X#X#X#X#X#X#X#X",
"#X#X#X#X#X#X#X#X#X#X#XQ.oXv w ; } #X X[.#XOX#XE.#X#X#X#X#X#X#X#X",
"#X#X#X#X#X#X#X#XE.#X X#X X#X+X#X+X X@X#X@X#X#X#X#X#X#X#X#X#X#X#X",
"#X#X#X#X#X#X#X#X#X#X#X[.oX#X+X X#XE.#X#X X#X+XOX#X#X#X#X#X#X#X#X",
"#X#X#X#X#X#X#X#X#XOX#X#XE.#X#X X#X#XXXXX#XoX#X#X#X#X#X#X#X#X#X#X",
"#X#X#X#X#X#X#X#X@X#XOX#X#X+X+X#XXXoX#XXX#X#X#XXX#X#X#X#X#X#X#X#X"
};
