/* XPM */
static char *ea348b5e7e1c45c1add8e7dd37833fc7FSw09GNsnAnsTR7g[] = {
/* columns rows colors chars-per-pixel */
"32 32 200 2 ",
"   c #170000",
".  c #1F0900",
"X  c #1D0E15",
"o  c #1E181A",
"O  c #351600",
"+  c #241C1D",
"@  c #2C1D18",
"#  c #371B17",
"$  c #3D2205",
"%  c #342415",
"&  c #35261A",
"*  c #332925",
"=  c #352528",
"-  c #3D3334",
";  c #481D17",
":  c #543107",
">  c #442A17",
",  c #49211F",
"<  c #482C1E",
"1  c #53271A",
"2  c #45371D",
"3  c #5D3915",
"4  c #612A1C",
"5  c #613F19",
"6  c #5B2B25",
"7  c #5E2C2D",
"8  c #552125",
"9  c #4E3F20",
"0  c #46382B",
"q  c #5C372D",
"w  c #5E2D31",
"e  c #403438",
"r  c #4B3936",
"t  c #5B3335",
"y  c #643C2B",
"u  c #643627",
"i  c #713329",
"p  c #633E35",
"a  c #763D32",
"s  c #67441E",
"d  c #564122",
"f  c #5F493E",
"g  c #664029",
"h  c #674D2A",
"j  c #754C2E",
"k  c #644333",
"l  c #674931",
"z  c #654E3C",
"x  c #724132",
"c  c #7D5F3D",
"v  c #534647",
"b  c #574A53",
"n  c #644E44",
"m  c #60474A",
"M  c #744346",
"N  c #635455",
"B  c #7F5559",
"V  c #695348",
"C  c #7D614B",
"Z  c #796658",
"A  c #7B7464",
"S  c #777276",
"D  c #814739",
"F  c #91403C",
"G  c #845739",
"H  c #894E4B",
"J  c #9E4F48",
"K  c #9C4645",
"L  c #9F534B",
"P  c #99594D",
"I  c #9F5650",
"U  c #925457",
"Y  c #AC4D46",
"T  c #A5514B",
"R  c #B2564B",
"E  c #AB4F52",
"W  c #AF5451",
"Q  c #896947",
"!  c #86704B",
"~  c #957046",
"^  c #8C7B5F",
"/  c #9E7653",
"(  c #AD675B",
")  c #9D5C62",
"_  c #81746B",
"`  c #9E7061",
"'  c #9A796A",
"]  c #88757A",
"[  c #906669",
"{  c #A96766",
"}  c #B4696E",
"|  c #A57068",
" . c #A07E63",
".. c #B96E72",
"X. c #A87272",
"o. c #C34F47",
"O. c #C4584B",
"+. c #C55957",
"@. c #C3625C",
"#. c #E26758",
"$. c #E86457",
"%. c #DF6864",
"&. c #CA786D",
"*. c #DD726A",
"=. c #DD7C6C",
"-. c #D0766D",
";. c #C77873",
":. c #C87D7B",
">. c #D27374",
",. c #D87677",
"<. c #C66B68",
"1. c #EB6E62",
"2. c #ED796A",
"3. c #F4776C",
"4. c #E97775",
"5. c #F67770",
"6. c #89816C",
"7. c #988667",
"8. c #988A77",
"9. c #A4856C",
"0. c #A5857C",
"q. c #AF9B7A",
"w. c #B99A78",
"e. c #CE887E",
"r. c #C7897A",
"t. c #D18472",
"y. c #E4917F",
"u. c #E88475",
"i. c #CCA17E",
"p. c #868281",
"a. c #958B96",
"s. c #A69286",
"d. c #AA9985",
"f. c #BC9880",
"g. c #AF8A91",
"h. c #B49994",
"j. c #B69699",
"k. c #A78387",
"l. c #B3A48D",
"z. c #ACA092",
"x. c #BEAB9F",
"c. c #BCA597",
"v. c #A29AA3",
"b. c #BA9AA7",
"n. c #D29397",
"m. c #C5878A",
"M. c #EA9C9A",
"N. c #CFA784",
"B. c #C5A89B",
"V. c #D3A886",
"C. c #E8BC95",
"Z. c #C5AAA7",
"A. c #D3A4AE",
"S. c #C6B2A3",
"D. c #C6B7AC",
"F. c #C4AFB8",
"G. c #CBB1B4",
"H. c #DEBCB3",
"J. c #E3BEA4",
"K. c #D7C4B6",
"L. c #F0D0BB",
"P. c #D6BDC3",
"I. c #CCC3C7",
"U. c #D0C7C0",
"Y. c #DCD5CB",
"T. c #D3CDD1",
"R. c #DCD8D9",
"E. c #E9C6CD",
"W. c #FFC5C6",
"Q. c #E9DDC5",
"!. c #FFDDCD",
"~. c #E6CDD1",
"^. c #EFDBD4",
"/. c #F2DCDE",
"(. c #E7E1DD",
"). c #ECE8DF",
"_. c #F9E4D4",
"`. c #EAEBEE",
"'. c #EBE8E9",
"]. c #FDECE4",
"[. c #F7EDEC",
"{. c #F1EAE2",
"}. c #FCF3E5",
"|. c #FFFDE6",
" X c #F3F3EE",
".X c #FDF5EC",
"XX c #FFFDED",
"oX c #FFE4F0",
"OX c #F4EEF2",
"+X c #FFECF2",
"@X c #EEF2F1",
"#X c #EEF8F9",
"$X c #F3F3F4",
"%X c #FCF6F3",
"&X c #F6FAF5",
"*X c #FDFDF5",
"=X c #F3F6FA",
"-X c #FBF6FC",
";X c #F5FCFC",
":X c #FEFEFE",
/* pixels */
":X:X:X:X:X:X:X:X&X;X:X:X=X;X:X-X-X:X-X:X:X$X&X:X:X*X:X:X:X:X:X:X",
":X:X:X:X:X:X:X:X:X@X:X:X:X:X:X:X:X'.:X=X;X:X:X:X:X:X:X:X:X:X:X:X",
":X:X:X:X:X:X:X:X&X:X:X$X&X-X:XOX*X*X:X:X=X=X:X&X:X:X:X:X:X:X:X:X",
":X:X:X:X:X:X:X:X:X%X X:X:X*X%X*X*X:X'.:X:X;X:X:X:X:X:X:X:X:X:X:X",
":X:X:X:X:X:X:X:X%X*X*X^.B.H.B.H.S.D.%X*X:X;X#X=X:X:X:X:X:X:X:X:X",
":X:X:X:X:X:X:X:X*X].h.' y a D 4 k k s.%X:X:X:X:X:X:X:X:X:X:X:X:X",
":X:X:X:X:X:X:X:X/.[ 6 { e.&.y.t.r.` p h.[.:X;X;X:X:X:X:X:X:X:X:X",
":X:X:X:X:X:X:X:Xj.7 n.;.-.u.O.=.&.r.| , +X:X-X:X:X:X:X:X:X:X:X:X",
"&X:X:X;X:X&X:X~.B { :.>.*.2.1.2.=.&.:.X.g.-X:X:X:X:X:X:X:X:X:X:X",
":X:X;X;X:X:X*XG.w { ,.,.%.1.$.#.2.-.M.m.t ] :X:X:X:X:X:X:X:X:X:X",
":X:X;X;X:X:X*XZ.8 } >.4.4.5.3.3.*.<.W.) A.b.] :X:X:X:X:X:X:X:X:X",
":X:X:X:X;X;X:XZ.7 { E +.+.o.o.O.@.K ..n.+XoXb -X:X:X:X:X:X:X:X:X",
":X:X:X:X;X&X*XZ.7 { T W Y Y R T F { U [ E.F.b $X:X:X:X:X:X:X:X:X",
":X:X:X:X:X&XXXx.; H I L J L ( P | H M k.P.N T.:X:X:X:X:X:X:X:X:X",
":X:X-X:X;X&X*XK.q 6 a i i 4 u 1 6 t t m v R.:X@X:X:X:X:X:X:X:X:X",
":X:X:X:X:X&X*X].0.y x x G u g y q 0.# r v :X$X:X:X:X:X:X:X:X:X:X",
":X:X:X:X:X:X:X*Xx.. l Q 3 / V.j 9.!.< s._ {.*X*X:X:X:X:X:X:X:X:X",
":X:X:X:X:X:X:X:X}.l.d h 3 ~ C.i.J.L._.S.z..X:X:X:X:X:X:X:X:X:X:X",
":X:X:X:X:X:X:X*X}.|.7.  s : G N.f.B.B.8.}.).:X$X:X:X:X:X:X:X:X:X",
":X:X:X:X:X:X:X*XXXQ.7.! Q 5 s w.' z Z _.%X:X X:X:X:X:X:X:X:X:X:X",
"*X:X:X:X:X:X:X*XXX8.9 q.w.c Q  .' V D..X%X X&X:X:X:X:X:X:X:X:X:X",
"*X*X:X:X:X:X:X*XXX6.2 ^ 9.$ O C n r * (.:X:X;X$X:X:X:X:X:X:X:X:X",
"*X:X:X:X:X:X:X:X*XA % d.z > > c.].* + (.:X:X:X:X:X:X:X:X:X:X:X:X",
":X:X:X:X:X:X:X:X*XY.& 0 % & f n N * p.$X:X;X:X:X:X:X:X:X:X:X:X:X",
":X:X:X:X:X:X:X:X%X:XU.] @ = ] r - o R.:X:X=X:X:X:X:X:X:X:X:X:X:X",
":X:X:X:X:X:X:X:X$X*X[.:XI.- X = + S $X$X;X:X:X:X:X:X:X:X:X:X:X:X",
":X:X:X:X:X:X:X:X-X:X$X:X:XI.a.v.v.OX:X:X:X:X=X:X:X:X:X:X:X:X:X:X",
":X:X:X:X:X:X:X:X-X-X&X$X=X-X:X:X:X:X`.:X=X;X:X:X:X:X:X:X:X:X:X:X",
":X:X:X:X:X:X:X:X:X$X:X:X$X-X-X=X-X$X:X:X`.:X:X;X:X:X:X:X:X:X:X:X",
"*X:X:X:X:X:X:X:X:X:X&X X:X:X:X=X:X:X:X:X:X:X&X:X:X:X:X:X:X:X:X:X",
"*X*X:X:X:X:X:X:X X&X*X:X:X@X=X:X:X*X$X&X:X:X$X:X:X:X:X:X:X:X:X:X",
"*X*X:X:X:X:X:X:X:X*X*X*X&X:X:X$X:X:X*X:X;X:X:X:X:X:X:X:X:X:X:X:X"
};
